<svg width="40" height="39" viewBox="0 0 40 39" fill="none" xmlns="http://www.w3.org/2000/svg">
<path d="M20 0C31.05 0 40 8.94697 40 19.9932C39.9989 24.1823 38.6838 28.2656 36.2396 31.6683C33.7954 35.0711 30.3454 37.6219 26.375 38.9618C25.375 39.1617 25 38.5369 25 38.0121C25 37.3374 25.025 35.1881 25.025 32.514C25.025 30.6396 24.4 29.44 23.675 28.8152C28.125 28.3154 32.8 26.616 32.8 18.9436C32.8 16.7443 32.025 14.9699 30.75 13.5704C30.95 13.0706 31.65 11.0213 30.55 8.2722C30.55 8.2722 28.875 7.72239 25.05 10.3215C23.45 9.87166 21.75 9.64673 20.05 9.64673C18.35 9.64673 16.65 9.87166 15.05 10.3215C11.225 7.74738 9.55 8.2722 9.55 8.2722C8.45 11.0213 9.15 13.0706 9.35 13.5704C8.075 14.9699 7.3 16.7693 7.3 18.9436C7.3 26.591 11.95 28.3154 16.4 28.8152C15.825 29.3151 15.3 30.1898 15.125 31.4893C13.975 32.0142 11.1 32.8639 9.3 29.8399C8.925 29.2401 7.8 27.7656 6.225 27.7906C4.55 27.8156 5.55 28.7403 6.25 29.1151C7.1 29.59 8.075 31.3644 8.3 31.9392C8.7 33.0638 10 35.2131 15.025 34.2884C15.025 35.9628 15.05 37.5373 15.05 38.0121C15.05 38.5369 14.675 39.1367 13.675 38.9618C9.6916 37.6363 6.22684 35.0907 3.77223 31.6859C1.31762 28.2811 -0.0022012 24.1901 2.75578e-06 19.9932C2.75578e-06 8.94697 8.95 0 20 0Z" fill="#131313"/>
</svg>
