<svg width="40" height="40" viewBox="0 0 40 40" fill="none" xmlns="http://www.w3.org/2000/svg">
<rect x="7.7193" y="7.7193" width="25.9649" height="24.5614" fill="#ffffff"/>
<path fill-rule="evenodd" clip-rule="evenodd" d="M5 0H35C37.7615 0 40 2.23854 40 5V35C40 37.7615 37.7615 40 35 40H5C2.23854 40 0 37.7615 0 35V5C0 2.23854 2.23854 0 5 0ZM10.2083 12.0667V13.6417H13.9583L16.8083 29.6917L20.5208 29.4292C24.1708 24.8042 26.6333 21.3417 27.9083 19.0417C29.2083 16.7167 29.8583 14.7792 29.8583 13.2292C29.8583 12.3042 29.5833 11.6042 29.0333 11.1292C28.5083 10.6542 27.8458 10.4167 27.0458 10.4167C25.5458 10.4167 24.2958 11.0542 23.2958 12.3292C24.2708 12.9792 24.9333 13.5167 25.2833 13.9417C25.6583 14.3417 25.8458 14.8792 25.8458 15.5542C25.8458 16.6792 25.5083 17.9542 24.8333 19.3792C24.1833 20.8042 23.4708 22.0667 22.6958 23.1667C22.1958 23.8667 21.5583 24.7292 20.7833 25.7542L18.3458 11.9167C18.1458 10.9167 17.5208 10.4167 16.4708 10.4167C15.9958 10.4167 15.0833 10.6167 13.7333 11.0167C12.3833 11.3917 11.2083 11.7417 10.2083 12.0667Z" fill="#12B886"/>
</svg>
